<!DOCTYPE svg PUBLIC "-//W3C//DTD SVG 1.1//EN" "http://www.w3.org/Graphics/SVG/1.1/DTD/svg11.dtd">

<!-- Uploaded to: SVG Repo, www.svgrepo.com, Transformed by: SVG Repo Mixer Tools -->
<svg width="89px" height="89px" viewBox="0 0 48 48" xmlns="http://www.w3.org/2000/svg" fill="#626262" >

<g id="SVGRepo_bgCarrier" stroke-width="0"/>

<g id="SVGRepo_tracerCarrier" stroke-linecap="round" stroke-linejoin="round"/>

<g id="SVGRepo_iconCarrier"> <defs> <style>.c{fill:none;stroke:TextFormField(                             // onSaved: (newValue) =&gt; firstName = newValue,                             onChanged: (value) {                               if (value.isNotEmpty) {                                 // removeError(error: kNamelNullError);                               }                               return;                             },                             validator: (value) {                               if (value!.isEmpty) {                                 // addError(error: kNamelNullError);                                 return "";                               }                               return null;                             },                             decoration: const InputDecoration(                               labelText: "Pickup Time",                               hintText: "Select a time",                               // If  you are using latest version of flutter then lable text and hint text shown like this                               // if you r using flutter less then 1.20.* then maybe this is not working properly                               floatingLabelBehavior:                                   FloatingLabelBehavior.always,                               suffixIcon: CustomSurffixIcon(                                   svgIcon: "assets/icons/time.svg"),                             ),                           );stroke-linecap:round;stroke-linejoin:round;}</style> </defs> <g id="a"> <g> <path class="c" d="m13.7625,21.6667c0-2.5926,2.0741-4.6667,4.4938-4.6667s4.6667,2.0741,4.6667,4.6667c0,1.2099-.5185,2.4198-1.3827,3.284-1.9012,1.5556-7.7778,6.0494-7.7778,6.0494h9.1605"/> <g> <path class="c" d="m30.7807,23.9136c1.9012,0,3.4568,1.5556,3.4568,3.4568h0c0,1.9012-1.5556,3.4568-3.4568,3.4568h-1.3827c-2.4198,0-3.284-.3457-4.321-1.2099"/> <path class="c" d="m25.077,18.2099c1.037-.8642,2.0741-1.2099,4.321-1.2099h1.3827,0c1.9012,0,3.4568,1.5555,3.4568,3.4568h0c0,1.9012-1.5556,3.4568-3.4568,3.4568h-3.4568"/> </g> </g> </g> <g id="b"> <path class="c" d="m38.5,5.5h-4v1c0,1.933-1.567,3.5-3.5,3.5s-3.5-1.567-3.5-3.5v-1h-8v1c0,1.933-1.567,3.5-3.5,3.5s-3.5-1.567-3.5-3.5v-1h-3c-2.2091,0-4,1.7908-4,4v29c0,2.2091,1.7909,4,4,4h29c2.2092,0,4-1.7909,4-4V9.5c0-2.2092-1.7908-4-4-4Z"/> </g> </g>

</svg>