<svg width="17" height="14" viewBox="0 0 17 14" fill="none" xmlns="http://www.w3.org/2000/svg">
<path d="M5.77273 9.86364V1H16V9.86364H5.77273ZM5.77273 9.86364H1V6.45455L3.04545 4.40909H5.77273V9.86364ZM11.2273 11.5682C11.2273 12.5096 11.9904 13.2727 12.9318 13.2727C13.8732 13.2727 14.6364 12.5096 14.6364 11.5682C14.6364 10.6268 13.8732 9.86364 12.9318 9.86364C11.9904 9.86364 11.2273 10.6268 11.2273 11.5682ZM2.36364 11.5682C2.36364 12.5096 3.12679 13.2727 4.06818 13.2727C5.00958 13.2727 5.77273 12.5096 5.77273 11.5682C5.77273 10.6268 5.00958 9.86364 4.06818 9.86364C3.12679 9.86364 2.36364 10.6268 2.36364 11.5682Z" stroke="#212121" stroke-linecap="round" stroke-linejoin="round"/>
</svg>
