<svg width="17" height="14" viewBox="0 0 17 14" fill="none" xmlns="http://www.w3.org/2000/svg">
<path d="M11.2273 9.86364V1H1V9.86364H11.2273ZM11.2273 9.86364H16V6.45455L13.9545 4.40909H11.2273V9.86364ZM5.77273 11.5682C5.77273 12.5096 5.00958 13.2727 4.06818 13.2727C3.12679 13.2727 2.36364 12.5096 2.36364 11.5682C2.36364 10.6268 3.12679 9.86364 4.06818 9.86364C5.00958 9.86364 5.77273 10.6268 5.77273 11.5682ZM14.6364 11.5682C14.6364 12.5096 13.8732 13.2727 12.9318 13.2727C11.9904 13.2727 11.2273 12.5096 11.2273 11.5682C11.2273 10.6268 11.9904 9.86364 12.9318 9.86364C13.8732 9.86364 14.6364 10.6268 14.6364 11.5682Z" stroke="#212121" stroke-linecap="round" stroke-linejoin="round"/>
</svg>
