<svg width="74" height="46" viewBox="0 0 74 46" fill="none" xmlns="http://www.w3.org/2000/svg">
<path fill-rule="evenodd" clip-rule="evenodd" d="M36.2861 1.21065C36.6472 0.929784 37.1528 0.929784 37.5139 1.21065L46.5139 8.21065C46.7575 8.4001 46.9 8.69141 46.9 9V20C46.9 20.7957 46.5839 21.5587 46.0213 22.1213C45.4587 22.6839 44.6956 23 43.9 23H29.9C29.1043 23 28.3413 22.6839 27.7787 22.1213C27.2161 21.5587 26.9 20.7957 26.9 20V9C26.9 8.69141 27.0425 8.4001 27.2861 8.21065L36.2861 1.21065ZM28.9 9.48908V20C28.9 20.2652 29.0054 20.5196 29.1929 20.7071C29.3804 20.8946 29.6348 21 29.9 21H43.9C44.1652 21 44.4196 20.8946 44.6071 20.7071C44.7946 20.5196 44.9 20.2652 44.9 20V9.48908L36.9 3.26686L28.9 9.48908Z" fill="#484C52"/>
<path fill-rule="evenodd" clip-rule="evenodd" d="M32.9 12C32.9 11.4477 33.3477 11 33.9 11H39.9C40.4523 11 40.9 11.4477 40.9 12V22C40.9 22.5523 40.4523 23 39.9 23C39.3477 23 38.9 22.5523 38.9 22V13H34.9V22C34.9 22.5523 34.4523 23 33.9 23C33.3477 23 32.9 22.5523 32.9 22V12Z" fill="#484C52"/>
<path d="M26.268 33.636V42H25.176V38.208H20.916V42H19.824V33.636H20.916V37.308H25.176V33.636H26.268ZM31.0006 42.108C30.3846 42.108 29.8246 41.968 29.3206 41.688C28.8246 41.408 28.4326 41.012 28.1446 40.5C27.8646 39.98 27.7246 39.38 27.7246 38.7C27.7246 38.028 27.8686 37.436 28.1566 36.924C28.4526 36.404 28.8526 36.008 29.3566 35.736C29.8606 35.456 30.4246 35.316 31.0486 35.316C31.6726 35.316 32.2366 35.456 32.7406 35.736C33.2446 36.008 33.6406 36.4 33.9286 36.912C34.2246 37.424 34.3726 38.02 34.3726 38.7C34.3726 39.38 34.2206 39.98 33.9166 40.5C33.6206 41.012 33.2166 41.408 32.7046 41.688C32.1926 41.968 31.6246 42.108 31.0006 42.108ZM31.0006 41.148C31.3926 41.148 31.7606 41.056 32.1046 40.872C32.4486 40.688 32.7246 40.412 32.9326 40.044C33.1486 39.676 33.2566 39.228 33.2566 38.7C33.2566 38.172 33.1526 37.724 32.9446 37.356C32.7366 36.988 32.4646 36.716 32.1286 36.54C31.7926 36.356 31.4286 36.264 31.0366 36.264C30.6366 36.264 30.2686 36.356 29.9326 36.54C29.6046 36.716 29.3406 36.988 29.1406 37.356C28.9406 37.724 28.8406 38.172 28.8406 38.7C28.8406 39.236 28.9366 39.688 29.1286 40.056C29.3286 40.424 29.5926 40.7 29.9206 40.884C30.2486 41.06 30.6086 41.148 31.0006 41.148ZM43.7164 35.304C44.2284 35.304 44.6844 35.412 45.0844 35.628C45.4844 35.836 45.8004 36.152 46.0324 36.576C46.2644 37 46.3804 37.516 46.3804 38.124V42H45.3004V38.28C45.3004 37.624 45.1364 37.124 44.8084 36.78C44.4884 36.428 44.0524 36.252 43.5004 36.252C42.9324 36.252 42.4804 36.436 42.1444 36.804C41.8084 37.164 41.6404 37.688 41.6404 38.376V42H40.5604V38.28C40.5604 37.624 40.3964 37.124 40.0684 36.78C39.7484 36.428 39.3124 36.252 38.7604 36.252C38.1924 36.252 37.7404 36.436 37.4044 36.804C37.0684 37.164 36.9004 37.688 36.9004 38.376V42H35.8084V35.424H36.9004V36.372C37.1164 36.028 37.4044 35.764 37.7644 35.58C38.1324 35.396 38.5364 35.304 38.9764 35.304C39.5284 35.304 40.0164 35.428 40.4404 35.676C40.8644 35.924 41.1804 36.288 41.3884 36.768C41.5724 36.304 41.8764 35.944 42.3004 35.688C42.7244 35.432 43.1964 35.304 43.7164 35.304ZM54.1717 38.46C54.1717 38.668 54.1597 38.888 54.1357 39.12H48.8797C48.9197 39.768 49.1397 40.276 49.5397 40.644C49.9477 41.004 50.4397 41.184 51.0157 41.184C51.4877 41.184 51.8797 41.076 52.1917 40.86C52.5117 40.636 52.7357 40.34 52.8637 39.972H54.0397C53.8637 40.604 53.5117 41.12 52.9837 41.52C52.4557 41.912 51.7997 42.108 51.0157 42.108C50.3917 42.108 49.8317 41.968 49.3357 41.688C48.8477 41.408 48.4637 41.012 48.1837 40.5C47.9037 39.98 47.7637 39.38 47.7637 38.7C47.7637 38.02 47.8997 37.424 48.1717 36.912C48.4437 36.4 48.8237 36.008 49.3117 35.736C49.8077 35.456 50.3757 35.316 51.0157 35.316C51.6397 35.316 52.1917 35.452 52.6717 35.724C53.1517 35.996 53.5197 36.372 53.7757 36.852C54.0397 37.324 54.1717 37.86 54.1717 38.46ZM53.0437 38.232C53.0437 37.816 52.9517 37.46 52.7677 37.164C52.5837 36.86 52.3317 36.632 52.0117 36.48C51.6997 36.32 51.3517 36.24 50.9677 36.24C50.4157 36.24 49.9437 36.416 49.5517 36.768C49.1677 37.12 48.9477 37.608 48.8917 38.232H53.0437Z" fill="#484C52"/>
</svg>
