<svg width="17" height="15" viewBox="0 0 17 15" fill="none" xmlns="http://www.w3.org/2000/svg">
<path d="M15.9997 2.02866V6.11948H11.9089M1 12.9375V8.84671M1 8.84671H5.09082M1 8.84671L4.16304 11.8194C4.89581 12.5525 5.80235 13.0881 6.79808 13.3761C7.79381 13.6641 8.84628 13.6952 9.85727 13.4664C10.8683 13.2377 11.8048 12.7566 12.5796 12.068C13.3543 11.3793 13.942 10.5057 14.2878 9.52852M15.6562 5.77101L12.4926 2.79835C11.7599 2.06521 10.8533 1.52965 9.8576 1.24164C8.86187 0.95362 7.80941 0.922537 6.79842 1.15129C5.78742 1.38004 4.85085 1.86116 4.0761 2.54978C3.30134 3.23839 2.71365 4.11204 2.36786 5.08921" stroke="#212121" stroke-linecap="round" stroke-linejoin="round"/>
</svg>
